<svg version="1.1" viewBox="0 0 80.1 62.56" xmlns="http://www.w3.org/2000/svg">
  <defs>
    <style>.cls-1{fill:#45082f;}</style>
  </defs>
  <title>Asset 1</title>
  <g data-name="Layer 2">
    <g data-name="Layer 1">
      <path class="cls-1"
            d="M40.05,0C17.92,0,0,14.36,0,32.07,0,46.25,11.47,58.27,27.38,62.5c2,.31,2.74-.68,2.74-1.54s0-2.78-.05-5.45c-11.14,1.94-13.49-4.3-13.49-4.3a9.28,9.28,0,0,0-4.46-4.69c-3.62-2,.28-2,.28-2a8.42,8.42,0,0,1,6.14,3.3c3.57,4.91,9.37,3.49,11.66,2.67a6.41,6.41,0,0,1,2.54-4.29c-8.89-.8-18.24-3.56-18.24-15.85a11.16,11.16,0,0,1,4.12-8.61c-.45-.81-1.8-4.07.35-8.49,0,0,3.35-.86,11,3.29a47,47,0,0,1,20,0c7.61-4.15,11-3.29,11-3.29,2.15,4.42.8,7.68.4,8.49a11.22,11.22,0,0,1,4.11,8.61c0,12.32-9.37,15-18.28,15.82a7,7,0,0,1,2.71,5.94c0,4.29,0,7.74,0,8.78,0,.84.7,1.84,2.75,1.52,16-4.21,27.49-16.23,27.49-30.39C80.1,14.36,62.16,0,40.05,0"/>
    </g>
  </g>
</svg>
