<?xml version="1.0" encoding="UTF-8"?>
<svg xmlns:cc="http://creativecommons.org/ns#" xmlns:dc="http://purl.org/dc/elements/1.1/"
     xmlns:rdf="http://www.w3.org/1999/02/22-rdf-syntax-ns#" version="1.1" viewBox="0 0 72.59 64.15"
     xmlns="http://www.w3.org/2000/svg">
  <metadata>
    <rdf:RDF>
      <cc:Work rdf:about="">
        <dc:format>image/svg+xml</dc:format>
        <dc:type rdf:resource="http://purl.org/dc/dcmitype/StillImage"/>
        <dc:title>HackerrankHover</dc:title>
      </cc:Work>
    </rdf:RDF>
  </metadata>
  <defs>
    <style>.cls-1{fill:#45082f;}</style>
  </defs>
  <title>HackerrankHover</title>
  <g data-name="Layer 2">
    <g data-name="Layer 1">
      <path class="cls-1"
            d="M36.3,0C40.58,0,68.84,13.06,71,16s2.15,29.09,0,32.07-30.39,16-34.68,16S3.76,51.09,1.6,48.11-.53,19,1.6,16,32,0,36.3,0Zm4.17,18.17c3,0,3.34.69,3.34.69V28.93H30.46V18.24h1.38a.55.55,0,0,0,.85-.47.68.68,0,0,0-.42-.59l-5.24-4a1.13,1.13,0,0,0-.76-.29,1,1,0,0,0-.69.29l-5.6,4a.66.66,0,0,0-.4.58c0,.38.85,3.14.85,3.14h3.35V45.28c-1,.39-.13-.32-.13-.32h5.94a.8.8,0,0,0,.87-.69v-10H43.81V45H41.49a.77.77,0,0,0-.84.67.64.64,0,0,0,.39.57l5.23,3.92a1.09,1.09,0,0,0,.74.29,1,1,0,0,0,.69-.29l5.56-3.92a.65.65,0,0,0,.4-.57.78.78,0,0,0-.85-.67H50.48l0-26a.8.8,0,0,0-.87-.69H40.47Z"/>
    </g>
  </g>
</svg>
