<?xml version="1.0" encoding="UTF-8"?>
<svg xmlns:cc="http://creativecommons.org/ns#" xmlns:dc="http://purl.org/dc/elements/1.1/"
     xmlns:rdf="http://www.w3.org/1999/02/22-rdf-syntax-ns#" version="1.1" viewBox="0 0 67.28 64.14"
     xmlns="http://www.w3.org/2000/svg">
  <metadata>
    <rdf:RDF>
      <cc:Work rdf:about="">
        <dc:format>image/svg+xml</dc:format>
        <dc:type rdf:resource="http://purl.org/dc/dcmitype/StillImage"/>
        <dc:title>LeetCodeHover</dc:title>
      </cc:Work>
    </rdf:RDF>
  </metadata>
  <defs>
    <style>.cls-1{fill:#45082f;}</style>
  </defs>
  <title>LeetCodeHover</title>
  <g data-name="Layer 2">
    <g data-name="Layer 1">
      <path class="cls-1"
            d="M47.33,47.92l-9,7a9.63,9.63,0,0,1-6.09,1.77,9.64,9.64,0,0,1-6.09-1.77L11.7,43.23a6.3,6.3,0,0,1-2.35-5,6.1,6.1,0,0,1,2.35-4.88l14.41-11.7a9.75,9.75,0,0,1,6.13-1.73,9.63,9.63,0,0,1,6.09,1.77l9,7a5.31,5.31,0,0,0,6.34-.11,3.12,3.12,0,0,0,.13-5.08l-8.71-7a18.46,18.46,0,0,0-8.16-3.58l8.23-6.69A3.11,3.11,0,0,0,45,1.1,5.33,5.33,0,0,0,38.69,1L5,28A12.86,12.86,0,0,0,0,38.25,13.07,13.07,0,0,0,5,48.61l14.5,11.65c3.28,2.62,7.8,3.88,12.8,3.88a20.37,20.37,0,0,0,12.8-4l8.7-7A3.11,3.11,0,0,0,53.66,48,5.3,5.3,0,0,0,47.33,47.92ZM63,34.14H29.18c-2.34.63-4.23,2.24-4.23,4.23s1.89,3.6,4.23,3.79H63c2.34-.19,4.24-1.81,4.24-3.79S65.38,34.77,63,34.14Z"/>
    </g>
  </g>
</svg>
